
<svg width="30" height="30" viewBox="0 0 30 30" fill="none" xmlns="http://www.w3.org/2000/svg">
<path d="M15 30C23.2843 30 30 23.2843 30 15C30 6.71573 23.2843 0 15 0C6.71573 0 0 6.71573 0 15C0 23.2843 6.71573 30 15 30Z" fill="#F0F0F0"/>
<path d="M3.10077 5.86914C1.9225 7.40213 1.03405 9.16902 0.516724 11.0885H8.32012L3.10077 5.86914Z" fill="#0052B4"/>
<path d="M29.4832 11.0884C28.9659 9.16902 28.0774 7.40213 26.8992 5.86914L21.6799 11.0884H29.4832Z" fill="#0052B4"/>
<path d="M0.516724 18.9141C1.03411 20.8335 1.92256 22.6004 3.10077 24.1333L8.31995 18.9141H0.516724Z" fill="#0052B4"/>
<path d="M24.1324 3.10168C22.5994 1.92342 20.8326 1.03496 18.9131 0.517578V8.32092L24.1324 3.10168Z" fill="#0052B4"/>
<path d="M5.86768 26.8989C7.40066 28.0771 9.16756 28.9656 11.087 29.483V21.6797L5.86768 26.8989Z" fill="#0052B4"/>
<path d="M11.0869 0.517578C9.1675 1.03496 7.40061 1.92342 5.86768 3.10162L11.0869 8.32086V0.517578Z" fill="#0052B4"/>
<path d="M18.9131 29.483C20.8325 28.9656 22.5994 28.0771 24.1323 26.8989L18.9131 21.6797V29.483Z" fill="#0052B4"/>
<path d="M21.6799 18.9141L26.8992 24.1334C28.0774 22.6004 28.9659 20.8335 29.4832 18.9141H21.6799Z" fill="#0052B4"/>
<path d="M29.873 13.0435H16.9566H16.9566V0.126973C16.3161 0.0435938 15.6631 0 15 0C14.3368 0 13.6839 0.0435938 13.0435 0.126973V13.0434V13.0434H0.126973C0.0435938 13.6839 0 14.3369 0 15C0 15.6632 0.0435938 16.3161 0.126973 16.9565H13.0434H13.0434V29.873C13.6839 29.9564 14.3368 30 15 30C15.6631 30 16.3161 29.9565 16.9565 29.873V16.9566V16.9566H29.873C29.9564 16.3161 30 15.6632 30 15C30 14.3369 29.9564 13.6839 29.873 13.0435Z" fill="#D80027"/>
<path d="M18.9131 18.9141L25.6066 25.6076C25.9145 25.2999 26.2081 24.9782 26.4883 24.6446L20.7577 18.9141H18.9131V18.9141Z" fill="#D80027"/>
<path d="M11.0869 18.9141H11.0868L4.39331 25.6075C4.70104 25.9154 5.02278 26.209 5.3563 26.4892L11.0869 20.7585V18.9141Z" fill="#D80027"/>
<path d="M11.087 11.0863V11.0862L4.39344 4.39258C4.08559 4.70031 3.79191 5.02205 3.51172 5.35557L9.24236 11.0862H11.087V11.0863Z" fill="#D80027"/>
<path d="M18.9131 11.0851L25.6067 4.39143C25.2989 4.08357 24.9772 3.7899 24.6437 3.50977L18.9131 9.24041V11.0851Z" fill="#D80027"/>
</svg>
